<mxfile host="app.diagrams.net" agent="Mozilla/5.0 (Windows NT 10.0; Win64; x64) AppleWebKit/537.36 (KHTML, like Gecko) Chrome/128.0.0.0 Safari/537.36 OPR/114.0.0.0 (Edition Yx GX)" version="24.8.4">
  <diagram name="Page-1" id="2a216829-ef6e-dabb-86c1-c78162f3ba2b">
    <mxGraphModel dx="3023" dy="2533" grid="1" gridSize="10" guides="1" tooltips="1" connect="1" arrows="1" fold="1" page="1" pageScale="1" pageWidth="850" pageHeight="1100" background="none" math="0" shadow="0">
      <root>
        <mxCell id="0" />
        <mxCell id="1" parent="0" />
        <mxCell id="yuOISIgOCX0uWJEtP6---103" value="" style="swimlane;html=1;startSize=55;fontStyle=0;collapsible=0;horizontal=0;swimlaneLine=1;swimlaneFillColor=#ffffff;strokeWidth=2;whiteSpace=wrap;" parent="1" vertex="1">
          <mxGeometry x="-480" y="690" width="2030" height="230" as="geometry" />
        </mxCell>
        <mxCell id="yuOISIgOCX0uWJEtP6---112" style="edgeStyle=orthogonalEdgeStyle;rounded=0;orthogonalLoop=1;jettySize=auto;html=1;dashed=1;dashPattern=8 8;" parent="yuOISIgOCX0uWJEtP6---103" source="yuOISIgOCX0uWJEtP6---109" edge="1">
          <mxGeometry relative="1" as="geometry">
            <mxPoint x="901" y="130" as="targetPoint" />
          </mxGeometry>
        </mxCell>
        <mxCell id="yuOISIgOCX0uWJEtP6---109" value="" style="shape=mxgraph.bpmn.data;labelPosition=center;verticalLabelPosition=bottom;align=center;verticalAlign=top;size=15;html=1;" parent="yuOISIgOCX0uWJEtP6---103" vertex="1">
          <mxGeometry x="836" y="100" width="40" height="60" as="geometry" />
        </mxCell>
        <mxCell id="yuOISIgOCX0uWJEtP6---110" value="Task" style="shape=ext;rounded=1;html=1;whiteSpace=wrap;" parent="yuOISIgOCX0uWJEtP6---103" vertex="1">
          <mxGeometry x="901" y="90" width="120" height="80" as="geometry" />
        </mxCell>
        <mxCell id="yuOISIgOCX0uWJEtP6---120" style="edgeStyle=orthogonalEdgeStyle;rounded=0;orthogonalLoop=1;jettySize=auto;html=1;dashed=1;dashPattern=8 8;" parent="yuOISIgOCX0uWJEtP6---103" source="yuOISIgOCX0uWJEtP6---115" target="yuOISIgOCX0uWJEtP6---116" edge="1">
          <mxGeometry relative="1" as="geometry" />
        </mxCell>
        <mxCell id="yuOISIgOCX0uWJEtP6---115" value="" style="shape=mxgraph.bpmn.data;labelPosition=center;verticalLabelPosition=bottom;align=center;verticalAlign=top;size=15;html=1;" parent="yuOISIgOCX0uWJEtP6---103" vertex="1">
          <mxGeometry x="1101" y="100" width="40" height="60" as="geometry" />
        </mxCell>
        <mxCell id="yuOISIgOCX0uWJEtP6---116" value="Task" style="shape=ext;rounded=1;html=1;whiteSpace=wrap;" parent="yuOISIgOCX0uWJEtP6---103" vertex="1">
          <mxGeometry x="1171" y="90" width="120" height="80" as="geometry" />
        </mxCell>
        <mxCell id="yuOISIgOCX0uWJEtP6---154" style="edgeStyle=orthogonalEdgeStyle;rounded=0;orthogonalLoop=1;jettySize=auto;html=1;entryX=0;entryY=0.5;entryDx=0;entryDy=0;dashed=1;dashPattern=8 8;" parent="yuOISIgOCX0uWJEtP6---103" source="yuOISIgOCX0uWJEtP6---151" target="yuOISIgOCX0uWJEtP6---153" edge="1">
          <mxGeometry relative="1" as="geometry" />
        </mxCell>
        <mxCell id="yuOISIgOCX0uWJEtP6---151" value="" style="shape=mxgraph.bpmn.data;labelPosition=center;verticalLabelPosition=bottom;align=center;verticalAlign=top;size=15;html=1;sketch=1;curveFitting=1;jiggle=2;" parent="yuOISIgOCX0uWJEtP6---103" vertex="1">
          <mxGeometry x="1321" y="100" width="40" height="60" as="geometry" />
        </mxCell>
        <mxCell id="yuOISIgOCX0uWJEtP6---153" value="Task" style="shape=ext;rounded=1;html=1;whiteSpace=wrap;" parent="yuOISIgOCX0uWJEtP6---103" vertex="1">
          <mxGeometry x="1391" y="90" width="120" height="80" as="geometry" />
        </mxCell>
        <mxCell id="yuOISIgOCX0uWJEtP6---155" value="" style="points=[[0.25,0.25,0],[0.5,0,0],[0.75,0.25,0],[1,0.5,0],[0.75,0.75,0],[0.5,1,0],[0.25,0.75,0],[0,0.5,0]];shape=mxgraph.bpmn.gateway2;html=1;verticalLabelPosition=bottom;labelBackgroundColor=#ffffff;verticalAlign=top;align=center;perimeter=rhombusPerimeter;outlineConnect=0;outline=none;symbol=none;" parent="yuOISIgOCX0uWJEtP6---103" vertex="1">
          <mxGeometry x="1541" y="105" width="50" height="50" as="geometry" />
        </mxCell>
        <mxCell id="yuOISIgOCX0uWJEtP6---156" style="edgeStyle=orthogonalEdgeStyle;rounded=0;orthogonalLoop=1;jettySize=auto;html=1;entryX=0;entryY=0.5;entryDx=0;entryDy=0;entryPerimeter=0;" parent="yuOISIgOCX0uWJEtP6---103" source="yuOISIgOCX0uWJEtP6---153" target="yuOISIgOCX0uWJEtP6---155" edge="1">
          <mxGeometry relative="1" as="geometry">
            <mxPoint x="1521" y="350" as="targetPoint" />
          </mxGeometry>
        </mxCell>
        <mxCell id="yuOISIgOCX0uWJEtP6---167" value="" style="edgeStyle=orthogonalEdgeStyle;rounded=0;orthogonalLoop=1;jettySize=auto;html=1;" parent="yuOISIgOCX0uWJEtP6---103" source="yuOISIgOCX0uWJEtP6---155" target="yuOISIgOCX0uWJEtP6---159" edge="1">
          <mxGeometry relative="1" as="geometry">
            <mxPoint x="1681" y="1580" as="targetPoint" />
            <mxPoint x="1591" y="1580" as="sourcePoint" />
          </mxGeometry>
        </mxCell>
        <mxCell id="yuOISIgOCX0uWJEtP6---159" value="Task" style="shape=ext;rounded=1;html=1;whiteSpace=wrap;" parent="yuOISIgOCX0uWJEtP6---103" vertex="1">
          <mxGeometry x="1611" y="90" width="120" height="80" as="geometry" />
        </mxCell>
        <mxCell id="yuOISIgOCX0uWJEtP6---2" value="" style="swimlane;html=1;startSize=50;fontStyle=0;collapsible=0;horizontal=0;swimlaneLine=1;swimlaneFillColor=#ffffff;strokeWidth=2;whiteSpace=wrap;" parent="1" vertex="1">
          <mxGeometry x="-480" y="320" width="2040" height="340" as="geometry" />
        </mxCell>
        <mxCell id="yuOISIgOCX0uWJEtP6---6" style="edgeStyle=orthogonalEdgeStyle;rounded=0;orthogonalLoop=1;jettySize=auto;html=1;" parent="yuOISIgOCX0uWJEtP6---2" source="yuOISIgOCX0uWJEtP6---4" target="yuOISIgOCX0uWJEtP6---5" edge="1">
          <mxGeometry relative="1" as="geometry" />
        </mxCell>
        <mxCell id="yuOISIgOCX0uWJEtP6---4" value="" style="shape=mxgraph.bpmn.shape;html=1;verticalLabelPosition=bottom;labelBackgroundColor=#ffffff;verticalAlign=top;perimeter=ellipsePerimeter;outline=standard;symbol=general;" parent="yuOISIgOCX0uWJEtP6---2" vertex="1">
          <mxGeometry x="80" y="144" width="50" height="50" as="geometry" />
        </mxCell>
        <mxCell id="yuOISIgOCX0uWJEtP6---9" style="edgeStyle=orthogonalEdgeStyle;rounded=0;orthogonalLoop=1;jettySize=auto;html=1;" parent="yuOISIgOCX0uWJEtP6---2" source="yuOISIgOCX0uWJEtP6---5" edge="1">
          <mxGeometry relative="1" as="geometry">
            <mxPoint x="315" y="169" as="targetPoint" />
          </mxGeometry>
        </mxCell>
        <mxCell id="yuOISIgOCX0uWJEtP6---5" value="Task" style="shape=ext;rounded=1;html=1;whiteSpace=wrap;" parent="yuOISIgOCX0uWJEtP6---2" vertex="1">
          <mxGeometry x="160" y="129" width="120" height="80" as="geometry" />
        </mxCell>
        <mxCell id="yuOISIgOCX0uWJEtP6---7" value="" style="shape=mxgraph.bpmn.shape;html=1;verticalLabelPosition=bottom;labelBackgroundColor=#ffffff;verticalAlign=top;perimeter=rhombusPerimeter;background=gateway;outline=none;symbol=parallelGw;" parent="yuOISIgOCX0uWJEtP6---2" vertex="1">
          <mxGeometry x="315" y="144" width="50" height="50" as="geometry" />
        </mxCell>
        <mxCell id="CjMGcF9206Xnc9cuAVjh-27" style="edgeStyle=orthogonalEdgeStyle;rounded=0;orthogonalLoop=1;jettySize=auto;html=1;" edge="1" parent="yuOISIgOCX0uWJEtP6---2" source="yuOISIgOCX0uWJEtP6---10">
          <mxGeometry relative="1" as="geometry">
            <mxPoint x="530" y="-380" as="targetPoint" />
            <Array as="points">
              <mxPoint x="530" y="274" />
              <mxPoint x="530" y="-380" />
            </Array>
          </mxGeometry>
        </mxCell>
        <mxCell id="yuOISIgOCX0uWJEtP6---10" value="" style="points=[[0.25,0,0],[0.5,0,0],[0.75,0,0],[1,0.25,0],[1,0.5,0],[1,0.75,0],[0.75,1,0],[0.5,1,0],[0.25,1,0],[0,0.75,0],[0,0.5,0],[0,0.25,0]];shape=mxgraph.bpmn.task;whiteSpace=wrap;rectStyle=rounded;size=10;html=1;container=1;expand=0;collapsible=0;taskMarker=user;" parent="yuOISIgOCX0uWJEtP6---2" vertex="1">
          <mxGeometry x="380" y="234" width="120" height="80" as="geometry" />
        </mxCell>
        <mxCell id="CjMGcF9206Xnc9cuAVjh-26" style="edgeStyle=orthogonalEdgeStyle;rounded=0;orthogonalLoop=1;jettySize=auto;html=1;" edge="1" parent="yuOISIgOCX0uWJEtP6---2" source="yuOISIgOCX0uWJEtP6---11">
          <mxGeometry relative="1" as="geometry">
            <mxPoint x="520" y="-200" as="targetPoint" />
          </mxGeometry>
        </mxCell>
        <mxCell id="yuOISIgOCX0uWJEtP6---11" value="" style="points=[[0.25,0,0],[0.5,0,0],[0.75,0,0],[1,0.25,0],[1,0.5,0],[1,0.75,0],[0.75,1,0],[0.5,1,0],[0.25,1,0],[0,0.75,0],[0,0.5,0],[0,0.25,0]];shape=mxgraph.bpmn.task;whiteSpace=wrap;rectStyle=rounded;size=10;html=1;container=1;expand=0;collapsible=0;taskMarker=user;" parent="yuOISIgOCX0uWJEtP6---2" vertex="1">
          <mxGeometry x="380" y="129" width="120" height="80" as="geometry" />
        </mxCell>
        <mxCell id="CjMGcF9206Xnc9cuAVjh-25" style="edgeStyle=orthogonalEdgeStyle;rounded=0;orthogonalLoop=1;jettySize=auto;html=1;exitX=1;exitY=0.5;exitDx=0;exitDy=0;exitPerimeter=0;" edge="1" parent="yuOISIgOCX0uWJEtP6---2" source="yuOISIgOCX0uWJEtP6---12">
          <mxGeometry relative="1" as="geometry">
            <mxPoint x="510" y="-20" as="targetPoint" />
            <Array as="points">
              <mxPoint x="510" y="64" />
              <mxPoint x="510" y="-20" />
            </Array>
          </mxGeometry>
        </mxCell>
        <mxCell id="yuOISIgOCX0uWJEtP6---12" value="" style="points=[[0.25,0,0],[0.5,0,0],[0.75,0,0],[1,0.25,0],[1,0.5,0],[1,0.75,0],[0.75,1,0],[0.5,1,0],[0.25,1,0],[0,0.75,0],[0,0.5,0],[0,0.25,0]];shape=mxgraph.bpmn.task;whiteSpace=wrap;rectStyle=rounded;size=10;html=1;container=1;expand=0;collapsible=0;taskMarker=user;" parent="yuOISIgOCX0uWJEtP6---2" vertex="1">
          <mxGeometry x="380" y="24" width="120" height="80" as="geometry" />
        </mxCell>
        <mxCell id="yuOISIgOCX0uWJEtP6---16" style="edgeStyle=orthogonalEdgeStyle;rounded=0;orthogonalLoop=1;jettySize=auto;html=1;entryX=0;entryY=0.5;entryDx=0;entryDy=0;entryPerimeter=0;" parent="yuOISIgOCX0uWJEtP6---2" source="yuOISIgOCX0uWJEtP6---7" target="yuOISIgOCX0uWJEtP6---10" edge="1">
          <mxGeometry relative="1" as="geometry">
            <Array as="points">
              <mxPoint x="340" y="274" />
            </Array>
          </mxGeometry>
        </mxCell>
        <mxCell id="yuOISIgOCX0uWJEtP6---17" style="edgeStyle=orthogonalEdgeStyle;rounded=0;orthogonalLoop=1;jettySize=auto;html=1;entryX=0;entryY=0.5;entryDx=0;entryDy=0;entryPerimeter=0;" parent="yuOISIgOCX0uWJEtP6---2" source="yuOISIgOCX0uWJEtP6---7" target="yuOISIgOCX0uWJEtP6---12" edge="1">
          <mxGeometry relative="1" as="geometry">
            <Array as="points">
              <mxPoint x="340" y="64" />
            </Array>
          </mxGeometry>
        </mxCell>
        <mxCell id="yuOISIgOCX0uWJEtP6---26" style="edgeStyle=orthogonalEdgeStyle;rounded=0;orthogonalLoop=1;jettySize=auto;html=1;entryX=0.5;entryY=1;entryDx=0;entryDy=0;exitX=1;exitY=0.5;exitDx=0;exitDy=0;exitPerimeter=0;" parent="yuOISIgOCX0uWJEtP6---2" source="CjMGcF9206Xnc9cuAVjh-23" target="yuOISIgOCX0uWJEtP6---24" edge="1">
          <mxGeometry relative="1" as="geometry">
            <mxPoint x="696" y="274.00000000000045" as="sourcePoint" />
          </mxGeometry>
        </mxCell>
        <mxCell id="yuOISIgOCX0uWJEtP6---25" style="edgeStyle=orthogonalEdgeStyle;rounded=0;orthogonalLoop=1;jettySize=auto;html=1;entryX=0.5;entryY=0;entryDx=0;entryDy=0;exitX=1;exitY=0.5;exitDx=0;exitDy=0;exitPerimeter=0;" parent="yuOISIgOCX0uWJEtP6---2" target="yuOISIgOCX0uWJEtP6---24" edge="1" source="CjMGcF9206Xnc9cuAVjh-18">
          <mxGeometry relative="1" as="geometry">
            <mxPoint x="696" y="64.00000000000045" as="sourcePoint" />
          </mxGeometry>
        </mxCell>
        <mxCell id="yuOISIgOCX0uWJEtP6---29" style="edgeStyle=orthogonalEdgeStyle;rounded=0;orthogonalLoop=1;jettySize=auto;html=1;entryX=0;entryY=0.5;entryDx=0;entryDy=0;" parent="yuOISIgOCX0uWJEtP6---2" source="yuOISIgOCX0uWJEtP6---24" target="yuOISIgOCX0uWJEtP6---28" edge="1">
          <mxGeometry relative="1" as="geometry" />
        </mxCell>
        <mxCell id="yuOISIgOCX0uWJEtP6---24" value="" style="shape=mxgraph.bpmn.shape;html=1;verticalLabelPosition=bottom;labelBackgroundColor=#ffffff;verticalAlign=top;perimeter=rhombusPerimeter;background=gateway;outline=none;symbol=parallelGw;" parent="yuOISIgOCX0uWJEtP6---2" vertex="1">
          <mxGeometry x="723.5" y="144" width="50" height="50" as="geometry" />
        </mxCell>
        <mxCell id="yuOISIgOCX0uWJEtP6---27" style="edgeStyle=orthogonalEdgeStyle;rounded=0;orthogonalLoop=1;jettySize=auto;html=1;exitX=1;exitY=0.5;exitDx=0;exitDy=0;exitPerimeter=0;" parent="yuOISIgOCX0uWJEtP6---2" edge="1" source="CjMGcF9206Xnc9cuAVjh-21">
          <mxGeometry relative="1" as="geometry">
            <mxPoint x="695.9999725651428" y="169.03703703703695" as="sourcePoint" />
            <mxPoint x="726" y="169" as="targetPoint" />
          </mxGeometry>
        </mxCell>
        <mxCell id="yuOISIgOCX0uWJEtP6---28" value="Task" style="shape=ext;rounded=1;html=1;whiteSpace=wrap;" parent="yuOISIgOCX0uWJEtP6---2" vertex="1">
          <mxGeometry x="796" y="129" width="120" height="80" as="geometry" />
        </mxCell>
        <mxCell id="yuOISIgOCX0uWJEtP6---33" style="edgeStyle=orthogonalEdgeStyle;rounded=0;orthogonalLoop=1;jettySize=auto;html=1;entryX=0.5;entryY=0;entryDx=0;entryDy=0;" parent="yuOISIgOCX0uWJEtP6---2" source="yuOISIgOCX0uWJEtP6---30" target="yuOISIgOCX0uWJEtP6---28" edge="1">
          <mxGeometry relative="1" as="geometry">
            <Array as="points">
              <mxPoint x="961" y="109" />
              <mxPoint x="856" y="109" />
            </Array>
          </mxGeometry>
        </mxCell>
        <mxCell id="yuOISIgOCX0uWJEtP6---30" value="" style="points=[[0.25,0.25,0],[0.5,0,0],[0.75,0.25,0],[1,0.5,0],[0.75,0.75,0],[0.5,1,0],[0.25,0.75,0],[0,0.5,0]];shape=mxgraph.bpmn.gateway2;html=1;verticalLabelPosition=bottom;labelBackgroundColor=#ffffff;verticalAlign=top;align=center;perimeter=rhombusPerimeter;outlineConnect=0;outline=none;symbol=none;" parent="yuOISIgOCX0uWJEtP6---2" vertex="1">
          <mxGeometry x="936" y="144" width="50" height="50" as="geometry" />
        </mxCell>
        <mxCell id="CjMGcF9206Xnc9cuAVjh-29" style="edgeStyle=orthogonalEdgeStyle;rounded=0;orthogonalLoop=1;jettySize=auto;html=1;startArrow=classic;startFill=1;endArrow=none;endFill=0;exitX=0.5;exitY=0;exitDx=0;exitDy=0;exitPerimeter=0;" edge="1" parent="yuOISIgOCX0uWJEtP6---2" source="CjMGcF9206Xnc9cuAVjh-18">
          <mxGeometry relative="1" as="geometry">
            <mxPoint x="653" y="-380" as="targetPoint" />
            <Array as="points">
              <mxPoint x="653" y="-380" />
            </Array>
          </mxGeometry>
        </mxCell>
        <mxCell id="CjMGcF9206Xnc9cuAVjh-18" value="" style="points=[[0.25,0,0],[0.5,0,0],[0.75,0,0],[1,0.25,0],[1,0.5,0],[1,0.75,0],[0.75,1,0],[0.5,1,0],[0.25,1,0],[0,0.75,0],[0,0.5,0],[0,0.25,0]];shape=mxgraph.bpmn.task;whiteSpace=wrap;rectStyle=rounded;size=10;html=1;container=1;expand=0;collapsible=0;taskMarker=user;" vertex="1" parent="yuOISIgOCX0uWJEtP6---2">
          <mxGeometry x="593" y="24" width="120" height="80" as="geometry" />
        </mxCell>
        <mxCell id="CjMGcF9206Xnc9cuAVjh-30" style="edgeStyle=orthogonalEdgeStyle;rounded=0;orthogonalLoop=1;jettySize=auto;html=1;startArrow=classic;startFill=1;endArrow=none;endFill=0;" edge="1" parent="yuOISIgOCX0uWJEtP6---2" source="CjMGcF9206Xnc9cuAVjh-21">
          <mxGeometry relative="1" as="geometry">
            <mxPoint x="580" y="-210" as="targetPoint" />
            <Array as="points">
              <mxPoint x="580" y="169" />
              <mxPoint x="580" y="-200" />
            </Array>
          </mxGeometry>
        </mxCell>
        <mxCell id="CjMGcF9206Xnc9cuAVjh-21" value="" style="points=[[0.25,0,0],[0.5,0,0],[0.75,0,0],[1,0.25,0],[1,0.5,0],[1,0.75,0],[0.75,1,0],[0.5,1,0],[0.25,1,0],[0,0.75,0],[0,0.5,0],[0,0.25,0]];shape=mxgraph.bpmn.task;whiteSpace=wrap;rectStyle=rounded;size=10;html=1;container=1;expand=0;collapsible=0;taskMarker=user;" vertex="1" parent="yuOISIgOCX0uWJEtP6---2">
          <mxGeometry x="593" y="129" width="120" height="80" as="geometry" />
        </mxCell>
        <mxCell id="CjMGcF9206Xnc9cuAVjh-31" style="edgeStyle=orthogonalEdgeStyle;rounded=0;orthogonalLoop=1;jettySize=auto;html=1;startArrow=classic;startFill=1;endArrow=none;endFill=0;" edge="1" parent="yuOISIgOCX0uWJEtP6---2" source="CjMGcF9206Xnc9cuAVjh-23">
          <mxGeometry relative="1" as="geometry">
            <mxPoint x="570" y="-20" as="targetPoint" />
            <Array as="points">
              <mxPoint x="570" y="274" />
              <mxPoint x="570" y="-20" />
            </Array>
          </mxGeometry>
        </mxCell>
        <mxCell id="CjMGcF9206Xnc9cuAVjh-23" value="" style="points=[[0.25,0,0],[0.5,0,0],[0.75,0,0],[1,0.25,0],[1,0.5,0],[1,0.75,0],[0.75,1,0],[0.5,1,0],[0.25,1,0],[0,0.75,0],[0,0.5,0],[0,0.25,0]];shape=mxgraph.bpmn.task;whiteSpace=wrap;rectStyle=rounded;size=10;html=1;container=1;expand=0;collapsible=0;taskMarker=user;" vertex="1" parent="yuOISIgOCX0uWJEtP6---2">
          <mxGeometry x="593" y="234" width="120" height="80" as="geometry" />
        </mxCell>
        <mxCell id="CjMGcF9206Xnc9cuAVjh-28" style="edgeStyle=orthogonalEdgeStyle;rounded=0;orthogonalLoop=1;jettySize=auto;html=1;exitX=1;exitY=0.5;exitDx=0;exitDy=0;entryX=0;entryY=0.5;entryDx=0;entryDy=0;entryPerimeter=0;" edge="1" parent="yuOISIgOCX0uWJEtP6---2" source="yuOISIgOCX0uWJEtP6---7" target="yuOISIgOCX0uWJEtP6---11">
          <mxGeometry relative="1" as="geometry" />
        </mxCell>
        <mxCell id="yuOISIgOCX0uWJEtP6---113" value="" style="swimlane;html=1;startSize=55;fontStyle=0;collapsible=0;horizontal=0;swimlaneLine=1;swimlaneFillColor=#ffffff;strokeWidth=2;whiteSpace=wrap;" parent="1" vertex="1">
          <mxGeometry x="-480" y="950" width="2020" height="240" as="geometry" />
        </mxCell>
        <mxCell id="CjMGcF9206Xnc9cuAVjh-33" value="" style="swimlane;html=1;startSize=55;fontStyle=0;collapsible=0;horizontal=0;swimlaneLine=1;swimlaneFillColor=#ffffff;strokeWidth=2;whiteSpace=wrap;" vertex="1" parent="yuOISIgOCX0uWJEtP6---113">
          <mxGeometry y="120" width="2020" height="120" as="geometry" />
        </mxCell>
        <mxCell id="CjMGcF9206Xnc9cuAVjh-39" value="" style="swimlane;html=1;startSize=55;fontStyle=0;collapsible=0;horizontal=0;swimlaneLine=1;swimlaneFillColor=#ffffff;strokeWidth=2;whiteSpace=wrap;" vertex="1" parent="yuOISIgOCX0uWJEtP6---113">
          <mxGeometry y="-10" width="2020" height="130" as="geometry" />
        </mxCell>
        <mxCell id="yuOISIgOCX0uWJEtP6---117" value="Task" style="shape=ext;rounded=1;html=1;whiteSpace=wrap;" parent="yuOISIgOCX0uWJEtP6---113" vertex="1">
          <mxGeometry x="1061" y="78" width="120" height="80" as="geometry" />
        </mxCell>
        <mxCell id="yuOISIgOCX0uWJEtP6---124" style="edgeStyle=orthogonalEdgeStyle;rounded=0;orthogonalLoop=1;jettySize=auto;html=1;" parent="yuOISIgOCX0uWJEtP6---113" source="yuOISIgOCX0uWJEtP6---121" edge="1">
          <mxGeometry relative="1" as="geometry">
            <mxPoint x="1341" y="115" as="targetPoint" />
          </mxGeometry>
        </mxCell>
        <mxCell id="yuOISIgOCX0uWJEtP6---125" style="edgeStyle=orthogonalEdgeStyle;rounded=0;orthogonalLoop=1;jettySize=auto;html=1;entryX=0.5;entryY=1;entryDx=0;entryDy=0;exitX=0.5;exitY=1;exitDx=0;exitDy=0;exitPerimeter=0;" parent="yuOISIgOCX0uWJEtP6---113" source="yuOISIgOCX0uWJEtP6---121" target="yuOISIgOCX0uWJEtP6---117" edge="1">
          <mxGeometry relative="1" as="geometry" />
        </mxCell>
        <mxCell id="yuOISIgOCX0uWJEtP6---121" value="" style="points=[[0.25,0.25,0],[0.5,0,0],[0.75,0.25,0],[1,0.5,0],[0.75,0.75,0],[0.5,1,0],[0.25,0.75,0],[0,0.5,0]];shape=mxgraph.bpmn.gateway2;html=1;verticalLabelPosition=bottom;labelBackgroundColor=#ffffff;verticalAlign=top;align=center;perimeter=rhombusPerimeter;outlineConnect=0;outline=none;symbol=none;" parent="yuOISIgOCX0uWJEtP6---113" vertex="1">
          <mxGeometry x="1206" y="153" width="50" height="50" as="geometry" />
        </mxCell>
        <mxCell id="yuOISIgOCX0uWJEtP6---146" value="" style="points=[[0.25,0,0],[0.5,0,0],[0.75,0,0],[1,0.25,0],[1,0.5,0],[1,0.75,0],[0.75,1,0],[0.5,1,0],[0.25,1,0],[0,0.75,0],[0,0.5,0],[0,0.25,0]];shape=mxgraph.bpmn.task;whiteSpace=wrap;rectStyle=rounded;size=10;html=1;container=1;expand=0;collapsible=0;taskMarker=abstract;isLoopSub=1;" parent="yuOISIgOCX0uWJEtP6---113" vertex="1">
          <mxGeometry x="1281" y="78" width="120" height="80" as="geometry" />
        </mxCell>
        <mxCell id="yuOISIgOCX0uWJEtP6---111" style="edgeStyle=orthogonalEdgeStyle;rounded=0;orthogonalLoop=1;jettySize=auto;html=1;entryX=0.5;entryY=1;entryDx=0;entryDy=0;entryPerimeter=0;" parent="1" source="yuOISIgOCX0uWJEtP6---110" target="yuOISIgOCX0uWJEtP6---30" edge="1">
          <mxGeometry relative="1" as="geometry" />
        </mxCell>
        <mxCell id="yuOISIgOCX0uWJEtP6---118" style="edgeStyle=orthogonalEdgeStyle;rounded=0;orthogonalLoop=1;jettySize=auto;html=1;entryX=0;entryY=0.5;entryDx=0;entryDy=0;exitX=1;exitY=0.5;exitDx=0;exitDy=0;exitPerimeter=0;" parent="1" source="yuOISIgOCX0uWJEtP6---30" target="yuOISIgOCX0uWJEtP6---117" edge="1">
          <mxGeometry relative="1" as="geometry">
            <Array as="points">
              <mxPoint x="581" y="490" />
            </Array>
          </mxGeometry>
        </mxCell>
        <mxCell id="yuOISIgOCX0uWJEtP6---119" style="edgeStyle=orthogonalEdgeStyle;rounded=0;orthogonalLoop=1;jettySize=auto;html=1;entryX=0.5;entryY=1;entryDx=0;entryDy=0;entryPerimeter=0;dashed=1;dashPattern=8 8;" parent="1" source="yuOISIgOCX0uWJEtP6---117" target="yuOISIgOCX0uWJEtP6---115" edge="1">
          <mxGeometry relative="1" as="geometry" />
        </mxCell>
        <mxCell id="yuOISIgOCX0uWJEtP6---122" style="edgeStyle=orthogonalEdgeStyle;rounded=0;orthogonalLoop=1;jettySize=auto;html=1;" parent="1" source="yuOISIgOCX0uWJEtP6---116" target="yuOISIgOCX0uWJEtP6---121" edge="1">
          <mxGeometry relative="1" as="geometry">
            <mxPoint x="781.0000000000005" y="1040" as="targetPoint" />
          </mxGeometry>
        </mxCell>
        <mxCell id="yuOISIgOCX0uWJEtP6---126" value="" style="swimlane;html=1;startSize=55;fontStyle=0;collapsible=0;horizontal=0;swimlaneLine=1;swimlaneFillColor=#ffffff;strokeWidth=2;whiteSpace=wrap;" parent="1" vertex="1">
          <mxGeometry x="-480" y="1210" width="2010" height="230" as="geometry" />
        </mxCell>
        <mxCell id="yuOISIgOCX0uWJEtP6---165" style="edgeStyle=orthogonalEdgeStyle;rounded=0;orthogonalLoop=1;jettySize=auto;html=1;entryX=0;entryY=0.5;entryDx=0;entryDy=0;dashed=1;dashPattern=8 8;" parent="yuOISIgOCX0uWJEtP6---126" source="yuOISIgOCX0uWJEtP6---161" target="yuOISIgOCX0uWJEtP6---164" edge="1">
          <mxGeometry relative="1" as="geometry" />
        </mxCell>
        <mxCell id="yuOISIgOCX0uWJEtP6---161" value="" style="shape=mxgraph.bpmn.data;labelPosition=center;verticalLabelPosition=bottom;align=center;verticalAlign=top;size=15;html=1;" parent="yuOISIgOCX0uWJEtP6---126" vertex="1">
          <mxGeometry x="1651" y="85" width="40" height="60" as="geometry" />
        </mxCell>
        <mxCell id="yuOISIgOCX0uWJEtP6---169" style="edgeStyle=orthogonalEdgeStyle;rounded=0;orthogonalLoop=1;jettySize=auto;html=1;" parent="yuOISIgOCX0uWJEtP6---126" source="yuOISIgOCX0uWJEtP6---164" edge="1">
          <mxGeometry relative="1" as="geometry">
            <mxPoint x="1861" y="115" as="targetPoint" />
          </mxGeometry>
        </mxCell>
        <mxCell id="yuOISIgOCX0uWJEtP6---164" value="Task" style="shape=ext;rounded=1;html=1;whiteSpace=wrap;" parent="yuOISIgOCX0uWJEtP6---126" vertex="1">
          <mxGeometry x="1721" y="75" width="120" height="80" as="geometry" />
        </mxCell>
        <mxCell id="yuOISIgOCX0uWJEtP6---168" value="" style="points=[[0.25,0.25,0],[0.5,0,0],[0.75,0.25,0],[1,0.5,0],[0.75,0.75,0],[0.5,1,0],[0.25,0.75,0],[0,0.5,0]];shape=mxgraph.bpmn.gateway2;html=1;verticalLabelPosition=bottom;labelBackgroundColor=#ffffff;verticalAlign=top;align=center;perimeter=rhombusPerimeter;outlineConnect=0;outline=none;symbol=none;" parent="yuOISIgOCX0uWJEtP6---126" vertex="1">
          <mxGeometry x="1861" y="90" width="50" height="50" as="geometry" />
        </mxCell>
        <mxCell id="yuOISIgOCX0uWJEtP6---171" value="" style="points=[[0.145,0.145,0],[0.5,0,0],[0.855,0.145,0],[1,0.5,0],[0.855,0.855,0],[0.5,1,0],[0.145,0.855,0],[0,0.5,0]];shape=mxgraph.bpmn.event;html=1;verticalLabelPosition=bottom;labelBackgroundColor=#ffffff;verticalAlign=top;align=center;perimeter=ellipsePerimeter;outlineConnect=0;aspect=fixed;outline=end;symbol=terminate2;" parent="yuOISIgOCX0uWJEtP6---126" vertex="1">
          <mxGeometry x="1941" y="90" width="50" height="50" as="geometry" />
        </mxCell>
        <mxCell id="yuOISIgOCX0uWJEtP6---172" style="edgeStyle=orthogonalEdgeStyle;rounded=0;orthogonalLoop=1;jettySize=auto;html=1;entryX=0;entryY=0.5;entryDx=0;entryDy=0;entryPerimeter=0;" parent="yuOISIgOCX0uWJEtP6---126" source="yuOISIgOCX0uWJEtP6---168" target="yuOISIgOCX0uWJEtP6---171" edge="1">
          <mxGeometry relative="1" as="geometry" />
        </mxCell>
        <mxCell id="yuOISIgOCX0uWJEtP6---147" value="&lt;font style=&quot;font-size: 30px;&quot;&gt;Аналитики&lt;/font&gt;" style="text;html=1;align=center;verticalAlign=middle;resizable=0;points=[];autosize=1;strokeColor=none;fillColor=none;" parent="1" vertex="1">
          <mxGeometry x="-670" y="1040" width="170" height="50" as="geometry" />
        </mxCell>
        <mxCell id="yuOISIgOCX0uWJEtP6---148" value="&lt;font style=&quot;font-size: 30px;&quot;&gt;Менеджер&lt;/font&gt;" style="text;html=1;align=center;verticalAlign=middle;resizable=0;points=[];autosize=1;strokeColor=none;fillColor=none;" parent="1" vertex="1">
          <mxGeometry x="-670" y="400" width="170" height="50" as="geometry" />
        </mxCell>
        <mxCell id="yuOISIgOCX0uWJEtP6---149" value="&lt;font style=&quot;font-size: 30px;&quot;&gt;Директор&lt;/font&gt;&lt;div&gt;&lt;font style=&quot;font-size: 30px;&quot;&gt;&amp;nbsp;по продажам&lt;/font&gt;&lt;/div&gt;" style="text;html=1;align=center;verticalAlign=middle;resizable=0;points=[];autosize=1;strokeColor=none;fillColor=none;" parent="1" vertex="1">
          <mxGeometry x="-690" y="760" width="210" height="90" as="geometry" />
        </mxCell>
        <mxCell id="yuOISIgOCX0uWJEtP6---150" value="&lt;span style=&quot;font-size: 30px;&quot;&gt;Генеральный&lt;/span&gt;&lt;div&gt;&lt;span style=&quot;font-size: 30px;&quot;&gt;директор&lt;/span&gt;&lt;/div&gt;" style="text;html=1;align=center;verticalAlign=middle;resizable=0;points=[];autosize=1;strokeColor=none;fillColor=none;" parent="1" vertex="1">
          <mxGeometry x="-690" y="1280" width="210" height="90" as="geometry" />
        </mxCell>
        <mxCell id="yuOISIgOCX0uWJEtP6---152" style="edgeStyle=orthogonalEdgeStyle;rounded=0;orthogonalLoop=1;jettySize=auto;html=1;entryX=0.5;entryY=1;entryDx=0;entryDy=0;entryPerimeter=0;dashed=1;dashPattern=12 12;" parent="1" source="yuOISIgOCX0uWJEtP6---146" target="yuOISIgOCX0uWJEtP6---151" edge="1">
          <mxGeometry relative="1" as="geometry" />
        </mxCell>
        <mxCell id="yuOISIgOCX0uWJEtP6---157" style="edgeStyle=orthogonalEdgeStyle;rounded=0;orthogonalLoop=1;jettySize=auto;html=1;entryX=0.5;entryY=1;entryDx=0;entryDy=0;entryPerimeter=0;exitX=0.5;exitY=1;exitDx=0;exitDy=0;exitPerimeter=0;" parent="1" source="yuOISIgOCX0uWJEtP6---155" target="yuOISIgOCX0uWJEtP6---146" edge="1">
          <mxGeometry relative="1" as="geometry" />
        </mxCell>
        <mxCell id="yuOISIgOCX0uWJEtP6---163" style="edgeStyle=orthogonalEdgeStyle;rounded=0;orthogonalLoop=1;jettySize=auto;html=1;entryX=0.5;entryY=0;entryDx=0;entryDy=0;entryPerimeter=0;dashed=1;dashPattern=8 8;" parent="1" source="yuOISIgOCX0uWJEtP6---159" target="yuOISIgOCX0uWJEtP6---161" edge="1">
          <mxGeometry relative="1" as="geometry" />
        </mxCell>
        <mxCell id="yuOISIgOCX0uWJEtP6---170" style="edgeStyle=orthogonalEdgeStyle;rounded=0;orthogonalLoop=1;jettySize=auto;html=1;entryX=1;entryY=0.5;entryDx=0;entryDy=0;exitX=0.5;exitY=0;exitDx=0;exitDy=0;exitPerimeter=0;" parent="1" source="yuOISIgOCX0uWJEtP6---168" target="yuOISIgOCX0uWJEtP6---159" edge="1">
          <mxGeometry relative="1" as="geometry" />
        </mxCell>
        <mxCell id="CjMGcF9206Xnc9cuAVjh-15" value="" style="swimlane;horizontal=0;whiteSpace=wrap;html=1;startSize=50;" vertex="1" parent="1">
          <mxGeometry x="-480" y="140" width="2020" height="160" as="geometry" />
        </mxCell>
        <mxCell id="CjMGcF9206Xnc9cuAVjh-16" value="" style="swimlane;horizontal=0;whiteSpace=wrap;html=1;startSize=50;" vertex="1" parent="1">
          <mxGeometry x="-480" y="-40" width="2020" height="160" as="geometry" />
        </mxCell>
        <mxCell id="CjMGcF9206Xnc9cuAVjh-17" value="" style="swimlane;horizontal=0;whiteSpace=wrap;html=1;startSize=50;" vertex="1" parent="1">
          <mxGeometry x="-480" y="-220" width="2020" height="160" as="geometry" />
        </mxCell>
        <mxCell id="yuOISIgOCX0uWJEtP6---108" style="edgeStyle=orthogonalEdgeStyle;rounded=0;orthogonalLoop=1;jettySize=auto;html=1;dashed=1;dashPattern=12 12;entryX=0.5;entryY=0;entryDx=0;entryDy=0;entryPerimeter=0;" parent="1" source="yuOISIgOCX0uWJEtP6---28" edge="1" target="yuOISIgOCX0uWJEtP6---109">
          <mxGeometry relative="1" as="geometry">
            <mxPoint x="376" y="900" as="targetPoint" />
          </mxGeometry>
        </mxCell>
      </root>
    </mxGraphModel>
  </diagram>
</mxfile>
